<svg width="665" height="327" viewBox="0 0 665 327" fill="none" xmlns="http://www.w3.org/2000/svg">
<path d="M347.335 188.082L351.296 182.692L355.298 177.302L359.259 171.912L363.22 166.522L367.181 161.091L371.183 155.701L375.143 150.311L379.104 144.92L383.065 139.53L387.067 134.099L391.028 128.709L394.989 123.319L399.072 117.847L403.237 112.294L407.607 106.536L412.221 100.656L416.917 94.8169L421.49 89.3451L425.778 84.5267L429.657 80.525L433.251 77.2582L436.844 74.4407L440.601 71.8273L444.725 69.2956L449.217 66.8047L453.913 64.4771L458.813 62.3129L463.835 60.3529L468.94 58.6787L474.125 57.2495L479.352 56.0653L484.661 55.167L490.01 54.4728L495.359 54.1052L500.749 53.9828L506.099 54.1052L511.489 54.4728L516.797 55.167L522.106 56.0653L527.373 57.2495L532.518 58.6787L537.623 60.3529L542.645 62.3129L547.586 64.4771L552.364 66.8864L557.06 69.5406L561.592 72.4398L566.002 75.5024L570.208 78.8099L574.292 82.3217L578.171 86.0376L581.887 89.9577L585.399 94.0003L588.706 98.247L591.81 102.657L594.668 107.19L597.322 111.845L599.731 116.663L601.936 121.563L603.856 126.586L605.571 131.69L607 136.876L608.143 142.144L609.082 147.411L609.736 152.761L610.144 158.11L610.267 163.5L610.144 168.849L609.736 174.239L609.082 179.548L608.143 184.856L607 190.124L605.571 195.269L603.856 200.373L601.936 205.396L599.731 210.337L597.322 215.114L594.668 219.81L591.81 224.343L588.706 228.753L585.399 232.959L581.887 237.042L578.171 240.922L574.292 244.637L570.208 248.149L566.002 251.457L561.592 254.56L557.06 257.419L552.364 260.073L547.586 262.482L542.645 264.687L537.623 266.606L532.518 268.321L527.373 269.751L522.106 270.894L516.797 271.833L511.489 272.486L506.099 272.895L500.749 273.017L495.359 272.895L490.01 272.486L484.661 271.833L479.352 270.894L474.125 269.751L468.94 268.321L463.835 266.606L458.813 264.687L453.913 262.523L449.176 260.154L444.684 257.704L440.478 255.214L436.599 252.723L432.965 250.068L429.33 247.088L425.655 243.576L421.735 239.452L417.774 234.878L413.895 229.978L410.261 224.996L407.035 220.096L404.217 215.196L401.727 210.337L399.562 205.396L397.602 200.373L395.846 195.31L394.213 190.165L392.621 184.979L384.699 195.718L376.899 206.253L369.345 216.503L362.158 226.262L355.38 235.409L348.969 244.107L342.803 252.437L336.719 260.644L341.374 259.664L345.947 258.929L350.357 258.644L354.522 259.011L358.361 260.236L362.117 262.278L365.956 265.014L370.121 268.28L374.735 272.037L379.717 276.08L384.862 280.245L390.007 284.451L395.03 288.575L400.052 292.536L405.279 296.415L410.914 300.254L417.121 304.092L423.777 307.767L430.841 311.32L438.151 314.546L445.664 317.445L453.259 319.936L461.018 322.1L468.858 323.856L476.739 325.203L484.702 326.183L492.705 326.796L500.749 327L508.753 326.796L516.756 326.183L524.719 325.203L532.641 323.856L540.481 322.1L548.199 319.936L555.835 317.445L563.307 314.546L570.658 311.279L577.803 307.685L584.786 303.725L591.565 299.437L598.139 294.823L604.468 289.882L610.552 284.614L616.351 279.102L621.864 273.303L627.131 267.219L632.072 260.889L636.686 254.315L640.974 247.537L644.935 240.554L648.528 233.408L651.795 226.058L654.694 218.585L657.185 210.949L659.349 203.232L661.105 195.391L662.453 187.47L663.433 179.507L664.045 171.503L664.249 163.5L664.045 155.456L663.433 147.452L662.453 139.49L661.105 131.609L659.349 123.768L657.185 116.01L654.694 108.415L651.795 100.942L648.528 93.5919L644.935 86.4051L640.974 79.4224L636.686 72.644L632.072 66.1105L627.131 59.7812L621.864 53.6969L616.351 47.8985L610.552 42.345L604.468 37.1182L598.139 32.1773L591.565 27.5631L584.786 23.2346L577.803 19.3146L570.658 15.6803L563.307 12.4544L555.835 9.55518L548.199 7.02347L540.481 4.90009L532.641 3.14422L524.719 1.75587L516.756 0.775833L508.753 0.204157L500.749 7.5782e-07L492.705 0.204157L484.702 0.775833L476.739 1.75587L468.858 3.14422L461.018 4.90009L453.259 7.02347L445.664 9.55518L438.151 12.4544L430.841 15.6803L423.777 19.192L417.121 22.8671L410.914 26.6239L405.279 30.3806L400.093 34.3007L395.152 38.5474L390.334 43.325L385.515 48.7152L380.656 54.5953L375.838 60.7204L371.101 66.9272L366.446 73.0115L361.913 78.9324L357.462 84.7309L353.175 90.366L348.969 95.8786L344.845 101.31L340.802 106.659L336.759 111.967L332.798 117.317L328.797 122.707L324.836 128.097L320.834 133.487L316.873 138.877L312.912 144.267L308.951 149.698L304.95 155.088L300.989 160.478L297.028 165.868L293.067 171.258L289.065 176.689L285.104 182.08L281.143 187.47L277.182 192.86L273.181 198.25L269.22 203.64L265.259 209.071L261.298 214.461L257.296 219.851L253.335 225.241L249.374 230.468L245.332 235.491L241.289 240.105L237.206 244.311L233 248.068L228.753 251.457L224.343 254.56L219.81 257.419L215.114 260.073L210.296 262.523L205.396 264.687L200.373 266.606L195.269 268.321L190.083 269.751L184.856 270.935L179.548 271.833L174.199 272.486L168.849 272.895L163.5 273.017L158.11 272.895L152.761 272.486L147.411 271.833L142.103 270.894L136.876 269.751L131.69 268.321L126.586 266.606L121.563 264.687L116.663 262.482L111.845 260.073L107.19 257.419L102.616 254.56L98.247 251.457L94.0003 248.149L89.9168 244.637L86.0376 240.922L82.3217 237.042L78.8099 232.959L75.5024 228.753L72.399 224.343L69.5406 219.81L66.8864 215.114L64.4771 210.337L62.2721 205.396L60.3529 200.373L58.6787 195.269L57.2495 190.124L56.0653 184.856L55.1261 179.548L54.4728 174.239L54.1053 168.849L53.9419 163.5L54.1053 158.11L54.4728 152.761L55.1261 147.411L56.0653 142.144L57.2495 136.876L58.6787 131.69L60.3529 126.586L62.2721 121.563L64.4771 116.663L66.8864 111.845L69.5406 107.19L72.399 102.657L75.5024 98.247L78.8099 94.0003L82.3217 89.9577L86.0376 86.0376L89.9168 82.3217L94.0003 78.8099L98.247 75.5024L102.616 72.4398L107.19 69.5406L111.845 66.8864L116.663 64.4771L121.563 62.3129L126.586 60.3529L131.69 58.6787L136.876 57.2495L142.103 56.0653L147.411 55.167L152.761 54.4728L158.11 54.1052L163.5 53.9828L168.849 54.1052L174.199 54.4728L179.548 55.167L184.856 56.0653L190.083 57.2495L195.269 58.6787L200.373 60.3529L205.396 62.3129L210.296 64.4771L215.114 66.8864L219.81 69.5406L224.343 72.4398L228.712 75.5024L232.959 78.8099L237.042 82.3217L240.922 86.0376L244.637 89.9168L248.149 94.0003L251.457 98.247L254.56 102.657L257.419 107.19L260.073 111.926L262.441 116.827L264.565 121.972L266.402 127.362L268.035 132.915L269.505 138.632L270.935 144.39L280.735 130.914L290.535 117.439L300.335 103.964L310.135 90.4885L307.645 85.8742L304.99 81.1375L302.01 76.2374L298.539 70.9698L294.414 65.3755L289.759 59.5771L284.614 53.6561L279.102 47.8985L273.262 42.345L267.219 37.1182L260.889 32.1773L254.315 27.5631L247.537 23.2346L240.554 19.3146L233.367 15.6803L226.058 12.4544L218.544 9.55518L210.949 7.02347L203.191 4.90009L195.391 3.14422L187.47 1.75587L179.507 0.775833L171.503 0.204157L163.5 7.5782e-07L155.456 0.204157L147.452 0.775833L139.49 1.75587L131.568 3.14422L123.768 4.90009L116.01 7.02347L108.415 9.55518L100.901 12.4544L93.5919 15.6803L86.4051 19.3146L79.4224 23.2346L72.644 27.5631L66.0697 32.1773L59.7812 37.1182L53.6969 42.345L47.8576 47.8985L42.345 53.6969L37.0774 59.7812L32.1773 66.1105L27.5222 72.644L23.2346 79.4224L19.2737 86.4051L15.6803 93.5919L12.4136 100.942L9.5552 108.415L7.02347 116.01L4.90009 123.768L3.14422 131.609L1.75587 139.49L0.775832 147.452L0.163339 155.456L0 163.5L0.163339 171.503L0.775832 179.507L1.75587 187.47L3.14422 195.391L4.90009 203.232L7.02347 210.949L9.5552 218.585L12.4136 226.058L15.6803 233.408L19.2737 240.554L23.2346 247.537L27.5222 254.315L32.1773 260.889L37.0774 267.219L42.345 273.303L47.8576 279.102L53.6969 284.614L59.7812 289.882L66.0697 294.823L72.644 299.437L79.4224 303.725L86.4051 307.685L93.5919 311.279L100.901 314.546L108.415 317.445L116.01 319.936L123.768 322.1L131.568 323.856L139.49 325.203L147.452 326.183L155.456 326.796L163.5 327L171.503 326.796L179.507 326.183L187.47 325.203L195.391 323.856L203.191 322.1L210.949 319.936L218.544 317.445L226.058 314.546L233.367 311.279L240.554 307.685L247.537 303.725L254.315 299.437L260.849 294.823L267.096 289.963L272.976 284.859L278.326 279.673L283.185 274.365L287.595 269.015L291.719 263.666L295.721 258.276L299.682 252.845L303.684 247.455L307.645 242.065L311.606 236.675L315.566 231.285L319.527 225.854L323.529 220.464L327.49 215.074L331.451 209.683L335.412 204.293L339.414 198.903L343.375 193.472L347.335 188.082Z" fill="white"/>
</svg>
