<svg width="96" height="322" viewBox="0 0 96 322" fill="none" xmlns="http://www.w3.org/2000/svg">
<path d="M10.0299 303.783L9.05993 299.97L7.97979 295.12L6.83353 289.256L5.68726 282.445L4.60712 274.73L3.6372 266.287L2.75545 257.403L1.98393 248.277L1.36671 239.107L0.859703 229.959L0.462917 220.789L0.198393 211.619L0.044088 202.449L0 193.279L0.088176 184.042L0.308613 174.784L0.683354 165.437L1.2124 156.047L1.89575 146.634L2.68932 137.177L3.6372 127.787L4.67325 118.749L5.77543 110.394L6.89966 103.076L8.04593 97.014L9.21424 91.966L10.3826 87.6234L11.617 83.6335L12.9176 79.6877L14.3063 75.6317L15.8494 71.3993L17.5908 66.9244L19.5307 62.1189L21.5366 57.2914L23.4544 52.7724L25.0856 48.8266L26.3201 45.7625L27.1798 43.448L27.7529 41.7065L28.1277 40.3839L28.3261 39.3479L28.4363 38.5102L28.4804 37.8489V37.3199V36.9231L28.3922 36.6145L28.1718 36.4161L27.7529 36.2618L27.0916 36.1736L26.276 36.1075L25.4604 35.9973L24.7109 35.8209L24.1819 35.5564L23.8292 35.2037L23.6087 34.8069L23.4765 34.388L23.4103 33.9692L23.3662 33.5724V33.2197V32.9332V32.6907L23.3442 32.3821L23.2119 32.1176L23.0356 31.9192L22.8813 31.7428L22.727 31.1256L22.5947 29.7589L22.4625 27.2239L22.3963 23.3662V18.693L22.4404 13.9757L22.5506 9.89758L22.749 7.076L23.0356 5.29046L23.4765 4.21032L24.0716 3.50491L24.8432 2.90974L25.7249 2.35867L26.6287 1.87368L27.5104 1.47691L28.304 1.19034L29.2519 0.969923L30.6406 0.793545L32.7127 0.617219L35.6886 0.396772L39.3699 0.22042L43.5582 0.0661157L47.989 1.05589e-07L52.4418 0.0661157L56.6301 0.22042L60.3114 0.396772L63.2873 0.617219L65.3594 0.793545L66.7481 0.969923L67.696 1.19034L68.4896 1.47691L69.3713 1.87368L70.2751 2.35867L71.1568 2.90974L71.9284 3.50491L72.5235 4.21032L72.9644 5.29046L73.251 7.076L73.4494 9.89758L73.5596 13.9757L73.6037 18.693V23.3662L73.5155 27.2239L73.4053 29.7589L73.273 31.1256L73.1187 31.7428L72.9644 31.9192L72.7881 32.1176L72.6558 32.3821L72.6338 32.6907V32.9332V33.2197V33.5724L72.5897 33.9692L72.5235 34.388L72.3913 34.8069L72.1708 35.2037L71.8181 35.5564L71.2891 35.8209L70.5396 35.9973L69.702 36.1075L68.9084 36.1736L68.2471 36.2618L67.8062 36.4161L67.6078 36.6145L67.5196 36.9231V37.3199V37.8489L67.5637 38.5102L67.6739 39.3479L67.8723 40.3839L68.2471 41.7065L68.8202 43.448L69.6799 45.7625L70.9144 48.8266L72.5456 52.7724L74.4634 57.2914L76.4693 62.1189L78.4092 66.9244L80.1506 71.3993L81.6937 75.6317L83.0824 79.6877L84.383 83.6335L85.5954 87.6234L86.7858 91.966L87.9541 97.014L89.1003 103.076L90.2246 110.394L91.3268 118.749L92.3628 127.787L93.3107 137.177L94.1042 146.634L94.7876 156.047L95.3166 165.437L95.6914 174.784L95.9118 184.042L96 193.279L95.9559 202.449L95.8016 211.619L95.5371 220.789L95.1403 229.959L94.6333 239.107L94.0161 248.277L93.2445 257.403L92.3628 266.287L91.3929 274.73L90.3127 282.445L89.1665 289.256L88.0202 295.12L86.9401 299.97L85.9701 303.783L85.1986 306.583L84.5594 308.589L83.9862 310.022L83.391 311.19L82.7077 312.27L81.9803 313.306L81.1646 314.32L80.2829 315.29L79.335 316.194L78.321 317.031L77.2629 317.825L76.1828 318.53L75.0365 319.17L73.8682 319.743L72.6778 320.228L71.4654 320.625L70.231 320.933L68.7541 321.176L66.8583 321.352L64.3454 321.462L60.9727 321.528L57.0048 321.572L52.6181 321.594H47.989H43.3819L38.9952 321.572L35.0273 321.528L31.6547 321.462L29.1417 321.352L27.2459 321.176L25.769 320.933L24.5346 320.625L23.3222 320.228L22.1318 319.743L20.9635 319.17L19.8172 318.53L18.7371 317.825L17.679 317.031L16.665 316.194L15.7171 315.29L14.8354 314.32L14.0197 313.306L13.2923 312.27L12.609 311.19L12.0138 310.022L11.4406 308.589L10.8014 306.583L10.0299 303.783Z" fill="white"/>
</svg>
