<svg width="28" height="171" viewBox="0 0 28 171" fill="none" xmlns="http://www.w3.org/2000/svg">
<path d="M13.17 170.01H13.8H14.42H15.05H15.68H16.3H16.93H17.56H18.19L18.81 170L19.44 169.99L20.07 169.97L20.7 169.94L21.32 169.9L21.95 169.84L22.58 169.76L23.2 169.67L23.83 169.54L24.46 169.37L25.09 169.13L25.71 168.82L26.29 168.45L26.79 168.05L27.18 167.63L27.42 167.03L27.54 165.26L27.59 161.16V153.54V141.71V126.8V110.43V94.21V79.52L27.58 66.86L27.55 56.51L27.5 48.73L27.41 43.64L27.29 40.69L27.15 39.15L26.99 38.34L26.81 37.64L26.62 36.94L26.4 36.24L26.17 35.53L25.91 34.83L25.62 34.13L25.31 33.43L24.97 32.73L24.61 32.03L24.22 31.33L23.82 30.63L23.39 29.93L22.95 29.23L22.51 28.53L22.09 27.83L21.72 27.13L21.39 26.44L21.12 25.76L20.9 25.14L20.74 24.59L20.62 24.11L20.54 23.64L20.49 23.08L20.46 22.32L20.44 21.33V20.2L20.47 19.08L20.52 18.11L20.61 17.4L20.73 16.91L20.89 16.59L21.06 16.36L21.27 16.17L21.49 16L21.72 15.84L21.96 15.69V15.44V15.19V14.94V14.69L21.73 14.57L21.51 14.44L21.27 14.29L21.04 14.12L20.8 13.92L20.57 13.7L20.37 13.47L20.22 13.24L20.12 13.02L20.07 12.76L20.05 12.41V11.94V11.3V10.52V9.65001V8.74001L19.89 8.62002L19.72 8.50001L19.56 8.38L19.39 8.25001L19.22 8.12L19.05 7.99001L18.9 7.86001L18.78 7.73L18.69 7.61L18.62 7.48L18.58 7.35001L18.56 7.21001L18.54 7.05L18.53 6.88001V6.71001L18.54 6.57001L18.56 6.45L18.63 6.27001L18.7 6.16001L18.79 6.04002L18.89 5.91001L18.99 5.78001L19.07 5.67001L19.13 5.59L19.19 5.50001L19.22 5.35001V5.20001V4.94V4.55001V4.1V3.65001L19.21 3.27001V3.02002L19.2 2.88002L19.16 2.78L19.09 2.70001L19 2.60001V2.49001V2.38L18.99 2.26001V2.14001L18.97 2.01L18.96 1.88001L18.93 1.74001L18.9 1.61001L18.86 1.48L18.81 1.34L18.76 1.22L18.69 1.09001L18.62 0.980011L18.54 0.860015L18.45 0.750009L18.35 0.650016L18.25 0.560013L18.14 0.47001L18.03 0.390008L17.91 0.310007L17.79 0.250009L17.67 0.190011L17.54 0.140015L17.4 0.100008L17.27 0.070015L17.13 0.04001L16.99 0.0300083L16.85 0.010005H16.72L16.58 1.52588e-05H16.44H16.3H16.16H16.02H15.88H15.73H15.59H15.45H15.31H15.17H15.03H14.89H14.75H14.61H14.47H14.33H14.19H14.05H13.91H13.77H13.63H13.49H13.35H13.21H13.07H12.93H12.79H12.65H12.51H12.37H12.23H12.09H11.95H11.81H11.67H11.53H11.39H11.25H11.11H10.97L10.83 0.010005H10.69L10.55 0.0300083L10.42 0.04001L10.28 0.070015L10.14 0.100008L10.01 0.140015L9.88 0.190011L9.76 0.250009L9.63 0.310007L9.52 0.390008L9.4 0.47001L9.3 0.560013L9.19 0.650016L9.1 0.750009L9.01 0.860015L8.93 0.980011L8.86 1.09001L8.79 1.22L8.74 1.34L8.69 1.48L8.65 1.61001L8.61 1.74001L8.59 1.88001L8.57 2.01L8.56 2.14001V2.26001L8.55 2.38V2.49001V2.60001L8.46 2.70001L8.39 2.78L8.35 2.88002L8.34 3.02002V3.27001L8.33 3.65001V4.1V4.55001V4.94V5.20001V5.35001L8.34 5.47001L8.41 5.59L8.47 5.67001L8.56 5.78001L8.66 5.91001L8.76 6.04002L8.85 6.16001L8.92 6.27001L9 6.45L9.02 6.57001L9.03 6.71001L9.04 6.88001V7.05L9.03 7.21001L9.01 7.35001L8.97 7.48L8.9 7.61L8.81 7.73L8.69 7.86001L8.54 7.99001L8.38 8.12L8.2 8.25001L8.04 8.38L7.87 8.50001L7.71 8.62002L7.54 8.74001V9.65001V10.52V11.3V11.94V12.41L7.52 12.76L7.47 13.02L7.38 13.24L7.22 13.47L7.02 13.7L6.79 13.92L6.56 14.12L6.32 14.29L6.09 14.44L5.86 14.57L5.63 14.69V14.94V15.19V15.44V15.69L5.87 15.84L6.1 16L6.32 16.17L6.53 16.36L6.71 16.59L6.86 16.91L6.98 17.4L7.07 18.11L7.12 19.08L7.15 20.2V21.33L7.13 22.32L7.1 23.08L7.05 23.64L6.97 24.11L6.85 24.59L6.69 25.14L6.47 25.76L6.2 26.44L5.88 27.13L5.5 27.83L5.08 28.53L4.64 29.23L4.2 29.93L3.78 30.63L3.37 31.33L2.98 32.03L2.62 32.73L2.28 33.43L1.97 34.13L1.69 34.83L1.42 35.53L1.19 36.24L0.97 36.94L0.78 37.64L0.6 38.34L0.44 39.15L0.299999 40.69L0.18 43.64L0.09 48.73L0.0399992 56.51L0.0100002 66.86L0 79.52V94.21V110.43V126.8V141.71V153.54V161.16L0.0499994 165.26L0.17 167.03L0.409999 167.63L0.8 168.05L1.3 168.45L1.89 168.82L2.51 169.13L3.13 169.37L3.76 169.54L4.39 169.67L5.01 169.76L5.64 169.84L6.27 169.9L6.9 169.94L7.52 169.97L8.15 169.99L8.78 170L9.41 170.01H10.03H10.66H11.29H11.91H12.54H13.17Z" fill="white"/>
</svg>
