<svg width="88" height="155" viewBox="0 0 88 155" fill="none" xmlns="http://www.w3.org/2000/svg">
<path d="M83.12 142.96L82.6 142.75L82.02 142.68L81.36 142.65L80.66 142.63L80.01 142.6L79.49 142.57L79.16 142.5L78.98 142.36L78.9 142.1L78.87 141.67L78.83 141.06L78.78 140.33L78.73 139.61L78.69 138.99L78.65 138.56L78.56 138.29L78.34 138.14L77.95 138.06L77.31 138.01L76.46 137.95L75.44 137.89L74.29 137.79L73.04 137.65L71.73 137.47L70.36 137.24L68.96 136.96L67.55 136.45L66.13 134.69L64.69 130.48L63.25 122.63L61.82 110.54L60.47 96.0301L59.3 81.5201L58.4 69.4501L57.83 61.6301L57.52 57.4001L57.39 55.5001L57.33 54.6401L57.27 53.7301L57.17 52.2801L57.01 49.9801L56.76 46.4901L56.41 41.7001L56.01 36.2101L55.62 30.8401L55.29 26.3801L55.08 23.4501L54.97 21.8301L54.95 21.1001L54.98 20.8601L55.07 20.7601L55.25 20.7001L55.57 20.6801H56.08H56.82H57.75H58.81H59.95L61.12 20.6701L62.28 20.6201L63.38 20.4901L64.39 20.2201L65.27 19.7801L66.01 19.0901L66.6 18.0701L67.03 16.6601L67.29 14.7901L67.42 12.7401L67.47 10.7701L67.48 9.15007V8.09006V7.52007L67.5 7.28006L67.59 7.18007L67.72 6.99007L67.78 6.74006L67.81 6.33007L67.82 5.83007L67.81 5.33007L67.78 4.91006L67.71 4.64007L67.6 4.45007L67.4 4.29008L67.08 4.08006L66.62 3.76007L66.02 3.36008L65.27 2.94007L64.39 2.54006L63.38 2.21006L62.24 1.95007L60.99 1.76007L59.65 1.63006L58.24 1.56006L56.85 1.53007H55.59L54.59 1.54006L53.9 1.55007L53.48 1.53007L53.23 1.45007L53.06 1.30007L52.89 1.07007L52.72 0.780065L52.54 0.490065L52.35 0.250072L52.1 0.10006L51.52 0.0300598L50.3 6.67572e-05H48.12H44.83L40.91 0.0100684L37 0.0200701L33.76 0.0300598H31.68H30.57H30.11H29.96L29.84 0.0400734H29.72H29.59H29.48H29.33H28.9L27.87 0.0600648L25.93 0.0700665L22.91 0.10006L19.28 0.140066L15.63 0.170059L12.57 0.200064L10.54 0.220068L9.35 0.240059H8.64L8.04 0.250072L7.29 0.260062L6.4 0.290067L5.51 0.350065L4.71 0.45007L4.1 0.620074L3.66 0.840063L3.35 1.12006L3.12 1.44007L2.94 1.80007L2.8 2.22007L2.69 2.72007L2.61 3.32007L2.55 4.01006L2.5 4.75007L2.47 5.44006L2.45 6.01007L2.43 6.45006L2.42 6.95006L2.39 7.76007L2.33 9.16006L2.26 11.2801L2.16 13.8201L2.06 16.3901L1.97 18.5701L1.89 20.1401L1.8 21.5401L1.65 23.4101L1.42 26.3801L1.08 30.8301L0.7 36.1801L0.34 41.5901L0.0800014 46.2401L0 49.4901L0.09 51.5201L0.38 52.6901L0.840002 53.3901L1.51 53.8901L2.34 54.2901L3.31 54.5801L4.41 54.7901L5.6 54.9301L6.79 55.0001L7.88 55.0301L8.79 55.0401L9.44 55.0601L9.86 55.1401L10.11 55.3501L10.25 55.7601L10.33 56.4001L10.38 57.1901L10.39 58.0001V58.7101L10.45 59.2201L10.88 59.5601L12.05 59.7801L14.27 59.9201L17.89 60.0101L22.2 60.0701L26.5 60.0801L30.13 60.0501L32.34 59.9501L33.51 59.7501L33.94 59.4101L34 58.9001V58.1901V57.3801L34.02 56.6001L34.04 55.9601L34.08 55.5501L34.14 55.3401L34.23 55.2601L34.34 55.2501L34.47 55.2601H34.62H34.78H34.91H35.03L35.18 55.3501L35.23 55.4701L35.28 55.8801L35.42 57.6101L35.74 61.9301L36.34 70.0701L37.26 82.6501L38.38 97.7601L39.5 112.84L40.43 125.35L41.02 133.38L41.34 137.61L41.48 139.39L41.54 140.04L41.6 140.67L41.67 141.41L41.74 142.16L41.8 142.8L41.76 143.26L41.16 143.59L39.5 143.86L36.23 144.16L31.11 144.53L24.89 144.95L18.62 145.35L13.32 145.69L9.77 145.92L7.66 146.07L6.43 146.17L5.5 146.27L4.44 146.4L3.27 146.66L2.16 147.15L1.24 147.95L0.68 149.16L0.390002 150.56L0.29 151.94L0.300002 153.09L0.370002 153.79L0.570002 154.16L1 154.3L1.76 154.32H2.99H4.96H7.97H12.35H18.24H25.16H32.51H39.66H46.07H51.55H55.99H59.3H61.44H62.72H63.54H64.28H65.26H66.48H67.85H69.3H70.87H72.47H74.15H75.95H77.87L79.82 154.31L81.66 154.27L83.26 154.21L84.53 154.11L85.49 153.94L86.19 153.71L86.69 153.38L87.03 152.93L87.19 152.31L87.15 151.45L86.89 150.3L86.37 148.8L85.7 147.16L84.97 145.58L84.26 144.26L83.66 143.44L83.12 142.96Z" fill="white"/>
</svg>
