<svg width="277" height="88" viewBox="0 0 277 88" fill="none" preserveAspectRatio="none" xmlns="http://www.w3.org/2000/svg">
<path d="M161.17 13.67L159.45 10.77L157.45 8.09002L155.03 5.76002L152.26 3.82002L149.27 2.27002L146.11 1.10002L142.83 0.340019L139.48 2.19345e-05L136.11 0.0700216L132.77 0.560019L129.53 1.46002L126.43 2.77002L123.5 4.45002L120.84 6.53002L118.57 8.99002L116.69 11.77L115.01 14.71L113.16 17.57L110.81 19.94L107.87 21.43L104.55 22.06L101.15 22.18H97.78H94.42L91.05 22.19H87.68H84.31H80.94H77.57H74.2H70.83H67.46H64.09H60.72H57.35H53.98H50.61H46.04H41.47H36.9H32.33H27.76H23.19H18.62H14.05H9.48H6.26L5.04 22.31L3.86001 22.66L2.78001 23.24L1.83001 24.02L1.05001 24.97L0.480008 26.05L0.120008 27.23L0 28.45V87.27H276.72V28.45L276.6 27.23L276.24 26.05L275.66 24.97L274.89 24.02L273.94 23.24L272.85 22.66L271.68 22.31L270.46 22.19H267.6H263.53H259.47H255.4H251.34H247.27H243.21H239.15H235.08H231.71H228.34H224.97H221.6H218.23H214.86H211.49H208.12H204.76H201.39H198.02H194.65H191.28H187.91H184.54L181.17 22.18H177.81L174.42 22.16L171.03 21.92L167.81 21.03L165.06 19.2L162.92 16.6L161.17 13.67Z" fill="white"/>
</svg>
