<svg width="834" height="223" viewBox="0 0 834 223" fill="none" xmlns="http://www.w3.org/2000/svg">
<path d="M282.858 135.003L281.286 130.395L279.659 125.569L278.033 120.636L276.352 115.648L274.671 110.659L273.045 105.888L271.472 101.225L270.009 96.8337L268.545 92.5505L267.135 88.3757L265.78 84.3635L264.478 80.4056L263.177 76.5019L261.822 72.6524L260.52 76.5019L259.219 80.4056L257.918 84.3635L256.562 88.3757L255.153 92.5505L253.689 96.8337L252.225 101.225L250.653 105.888L249.026 110.659L247.345 115.648L245.664 120.636L243.984 125.569L242.411 130.395L240.839 135.003L239.375 139.287L238.074 143.245L236.881 146.715L235.851 149.751L234.929 152.462L234.116 154.902L233.411 157.07L232.706 159.022L232.11 160.92L231.459 162.709L230.863 164.444L230.266 166.179L229.67 167.914L229.074 169.649L228.477 171.384L227.881 173.119L227.284 174.854L226.688 176.535H225.658H224.628H223.598H222.622H221.592H220.616H219.64H218.664H217.688H216.712H215.79H214.868H213.947H213.025H212.103H211.182H210.26H209.338H208.416H207.495H206.627H205.706H204.784H203.916H203.049H202.127H201.26H200.392H199.525H198.657H197.79H196.922L196.326 174.745L195.729 173.011L195.133 171.221L194.537 169.432L193.94 167.643L193.344 165.908L192.747 164.119L192.151 162.329L191.555 160.54L190.958 158.751L190.308 156.799L189.603 154.739L188.844 152.516L188.03 150.022L187.109 147.257L186.079 144.221L184.886 140.751L183.639 137.01L182.283 132.943L180.819 128.66L179.301 124.214L177.783 119.605L176.211 114.888L174.584 110.171L173.012 105.4L171.385 100.683L169.813 95.912L168.186 91.1408L166.56 86.4238L164.988 81.6526L163.361 76.8814L161.789 72.1644L160.162 67.3932L158.59 62.622L156.963 57.905L155.391 53.1338L153.764 48.3626L152.192 43.6456L150.566 38.8744L148.939 34.1573H150.511H152.084H153.656H155.174H156.746H158.265H159.837H161.355H162.927H164.445H165.964H167.536H169.054H170.572H172.09H173.608L175.235 38.8744L176.807 43.6456L178.434 48.4168L180.006 53.188L181.633 57.9592L183.205 62.7304L184.832 67.4474L186.404 72.2186L188.03 76.9898L189.603 81.761L191.229 86.5323L192.802 91.3035L194.428 96.0205L196 100.792L197.627 105.563L199.199 110.334L200.772 115.105L202.398 119.822L203.971 124.594L205.597 129.365L207.169 134.136L208.796 138.907L210.368 143.678L211.995 148.395L214.055 142.865L216.061 137.335L218.067 131.805L220.073 126.437L222.025 121.124L223.923 115.919L225.766 110.931L227.556 106.105L229.236 101.497L230.863 97.0506L232.381 92.8758L233.899 88.8636L235.255 85.0684L236.61 81.4357L237.803 78.02L238.996 74.7669L240.08 71.7307L241.11 68.8029L242.032 66.0377L242.954 63.381L243.821 60.8328L244.689 58.3387L245.502 55.8989L246.315 53.4591L247.128 51.0735L247.942 48.6336L248.755 46.248L249.568 43.8082L250.381 41.3684L251.195 38.9828L252.008 36.543L252.821 34.1573H253.689H254.556H255.532H256.617H257.809H258.406H259.056H259.761H260.466H261.171H261.822H262.526H263.231H263.936H264.641H265.292H265.888H266.539H267.623H268.653H269.575H270.442L271.689 36.543L272.503 38.9828L273.316 41.3684L274.129 43.8082L274.942 46.248L275.756 48.6336L276.569 51.0735L277.382 53.4591L278.195 55.8989L279.009 58.3387L279.876 60.8328L280.744 63.381L281.665 66.0377L282.587 68.8029L283.617 71.7307L284.702 74.7669L285.895 78.02L287.087 81.4357L288.443 85.0684L289.798 88.8636L291.262 92.8758L292.834 97.0506L294.461 101.497L296.142 106.105L297.931 110.931L299.774 115.919L301.672 121.124L303.624 126.437L305.63 131.805L307.636 137.335L309.642 142.865L311.702 148.395L313.329 143.678L314.901 138.907L316.528 134.136L318.1 129.365L319.727 124.594L321.299 119.822L322.871 115.105L324.498 110.334L326.07 105.563L327.697 100.792L329.269 96.0205L330.896 91.3035L332.468 86.5323L334.095 81.761L335.667 76.9898L337.293 72.2186L338.866 67.4474L340.492 62.7304L342.065 57.9592L343.691 53.188L345.264 48.4168L346.89 43.6456L348.462 38.8744L350.089 34.1573H351.607H353.125H354.643H356.161H357.734H359.252H360.77H362.342H363.86H365.433H366.951H368.523H370.041H371.614H373.186H374.758L373.132 38.8744L371.505 43.6456L369.933 48.3626L368.306 53.1338L366.734 57.905L365.107 62.622L363.535 67.3932L361.909 72.1644L360.336 76.8814L358.71 81.6526L357.137 86.4238L355.511 91.1408L353.884 95.912L352.312 100.683L350.685 105.4L349.113 110.171L347.487 114.888L345.914 119.605L344.396 124.214L342.878 128.66L341.414 132.943L340.059 137.01L338.812 140.751L337.619 144.221L336.589 147.257L335.667 150.022L334.854 152.516L334.095 154.739L333.39 156.799L332.739 158.751L332.143 160.54L331.546 162.329L330.95 164.119L330.354 165.908L329.757 167.643L329.161 169.432L328.564 171.221L327.968 173.011L327.372 174.745L326.775 176.535H325.908H325.04H324.173H323.305H322.438H321.57H320.648H319.781H318.913H317.992H317.07H316.203H315.281H314.359H313.437H312.516H311.594H310.672H309.751H308.829H307.907H306.985H306.01H305.034H304.058H303.082H302.106H301.076H300.1H299.07H298.039H297.009L296.413 174.854L295.816 173.119L295.22 171.384L294.624 169.649L294.027 167.914L293.431 166.179L292.834 164.444L292.238 162.709L291.587 160.92L290.991 159.022L290.286 157.07L289.581 154.902L288.768 152.462L287.846 149.751L286.816 146.715L285.623 143.245L284.322 139.287L282.858 135.003Z" fill="white"/>
<path d="M778.412 34.9166L780.093 35.2962L781.719 35.7299L783.4 36.2179L785.026 36.7058L786.653 37.3022L788.279 37.8986L789.852 38.5493L791.424 39.1999L792.996 39.9047L794.569 40.6638L796.087 41.477L797.605 42.2903L799.069 43.1578L800.533 44.0795L801.997 45.0012L803.406 45.9772L804.816 46.9531L806.172 48.0375L807.527 49.1218L808.828 50.2062L810.129 51.3448L811.377 52.5376L812.569 53.7304L813.816 54.9232L814.955 56.2244L816.094 57.4715L817.232 58.8269L818.262 60.1282L819.347 61.5378L820.323 62.8933L821.298 64.303L822.22 65.7669L823.142 67.2308L824.009 68.6947L824.823 70.2128L825.636 71.7309L826.395 73.3032L827.1 74.8755L827.805 76.4479L828.401 78.0202L828.997 79.6467L829.594 81.2733L830.082 82.8999L830.57 84.5806L831.004 86.2072L831.437 87.8879L831.763 89.5687L832.088 91.2495L832.359 92.9845L832.576 94.6652L832.793 96.4002L832.901 98.081L833.01 99.816L833.118 101.551V103.232V104.967L833.01 106.702L832.901 108.382L832.793 110.117L832.576 111.852L832.359 113.533L832.088 115.214L831.763 116.949L831.437 118.63L831.004 120.256L830.57 121.937L830.082 123.618L829.594 125.244L828.997 126.871L828.401 128.497L827.805 130.07L827.1 131.642L826.395 133.214L825.636 134.733L824.823 136.305L824.009 137.769L823.142 139.287L822.22 140.751L821.298 142.16L820.323 143.624L819.347 144.98L818.262 146.335L817.232 147.691L816.094 148.992L814.955 150.293L813.816 151.54L812.569 152.787L811.377 153.98L810.129 155.173L808.828 156.311L807.527 157.396L806.172 158.48L804.816 159.51L803.406 160.541L801.997 161.516L800.533 162.438L799.069 163.36L797.605 164.227L796.087 165.041L794.569 165.854L792.996 166.613L791.424 167.318L789.852 167.968L788.279 168.619L786.653 169.215L785.026 169.758L783.4 170.3L781.719 170.788L780.093 171.222L778.412 171.601L776.731 171.981L775.05 172.306L773.315 172.577L771.634 172.794L769.899 172.957L768.219 173.119L766.484 173.228L764.749 173.282L763.068 173.336L761.333 173.282L759.598 173.228L757.917 173.119L756.182 172.957L754.501 172.794L752.766 172.577L751.086 172.306L749.405 171.981L747.724 171.601L746.043 171.222L744.363 170.788L742.736 170.3L741.055 169.758L739.429 169.215L737.856 168.619L736.23 167.968L734.658 167.318L733.085 166.613L731.567 165.854L730.103 165.095L728.639 164.282L727.23 163.523L725.874 162.709L724.573 161.896L723.326 161.028L722.133 160.215L720.995 159.402L719.91 158.589L718.88 157.775L717.85 156.908L716.82 156.095L715.79 155.281V158.589V161.95V165.366V168.89V172.469V176.264V180.168V184.288V188.626V193.18V197.897V202.722V207.71V212.753V217.849V223H712.916H710.042H707.169H704.295H701.422H698.548H695.675H692.747V217.849V212.753V207.765V202.885V198.168V193.668V189.439V185.481V181.903V178.595V175.613V172.848V170.354V168.077V165.962V164.01V162.221V160.541V158.968V157.504V156.149V154.902V153.709V152.57V151.486V150.456V149.48V148.504V147.582V146.661V145.793V144.871L694.048 143.136L695.349 141.401L696.705 139.612L698.006 137.769L699.361 135.98L700.771 134.082L702.181 132.13L703.645 130.124L705.163 128.064L706.735 125.949L708.362 123.78L709.988 121.558L711.669 119.335L713.35 117.057L715.031 114.78L716.711 112.449L717.037 113.587L717.416 114.672L717.741 115.81L718.121 116.895L718.446 117.979L718.88 119.063L719.26 120.148L719.693 121.232L720.127 122.262L720.615 123.347L721.157 124.377L721.699 125.407L722.296 126.437L722.892 127.522L723.543 128.552L724.302 129.636L725.061 130.666L725.82 131.751L726.633 132.781L727.501 133.865L728.368 134.841L729.182 135.817L730.049 136.739L730.862 137.552L731.676 138.365L732.435 139.07L733.248 139.721L734.007 140.371L734.766 140.913L735.579 141.51L736.393 142.052L737.206 142.54L738.128 143.082L739.049 143.624L739.971 144.167L740.947 144.709L741.977 145.197L743.007 145.685L744.037 146.173L745.067 146.606L746.152 147.04L747.236 147.474L748.321 147.799L749.405 148.179L750.544 148.504L751.628 148.775L752.766 149.046L753.905 149.263L755.044 149.48L756.182 149.697L757.321 149.859L758.459 149.968L759.598 150.076L760.737 150.131L761.875 150.185H763.068H764.207L765.345 150.131L766.484 150.076L767.677 149.968L768.815 149.859L769.954 149.697L771.092 149.48L772.231 149.263L773.315 149.046L774.454 148.775L775.592 148.504L776.677 148.179L777.761 147.799L778.846 147.474L779.93 147.04L781.014 146.606L782.099 146.173L783.129 145.685L784.159 145.197L785.189 144.655L786.165 144.112L787.195 143.516L788.171 142.92L789.147 142.269L790.069 141.618L790.99 140.968L791.912 140.263L792.834 139.558L793.701 138.799L794.569 138.04L795.436 137.227L796.25 136.468L797.063 135.6L797.822 134.787L798.581 133.919L799.34 133.052L800.045 132.13L800.75 131.208L801.4 130.287L802.105 129.311L802.702 128.389L803.298 127.359L803.894 126.383L804.437 125.407L804.979 124.377L805.467 123.347L805.955 122.262L806.443 121.232L806.822 120.148L807.256 119.063L807.635 117.979L807.961 116.895L808.286 115.756L808.557 114.672L808.828 113.533L809.099 112.395L809.316 111.256L809.479 110.117L809.642 108.979L809.75 107.84L809.858 106.702L809.913 105.563L809.967 104.425V103.232V102.093L809.913 100.955L809.858 99.816L809.75 98.6774L809.642 97.4846L809.479 96.346L809.316 95.2074L809.099 94.123L808.828 92.9845L808.557 91.8459L808.286 90.7615L807.961 89.6229L807.635 88.5386L807.256 87.4542L806.822 86.3698L806.443 85.2855L805.955 84.2553L805.467 83.1709L804.979 82.1408L804.437 81.1106L803.894 80.1347L803.298 79.1046L802.702 78.1286L802.105 77.1527L801.4 76.231L800.75 75.3093L800.045 74.3876L799.34 73.4659L798.581 72.5984L797.822 71.7309L797.063 70.9176L796.25 70.0501L795.436 69.2368L794.569 68.4778L793.701 67.7187L792.834 66.9597L791.912 66.2548L790.99 65.55L790.069 64.8994L789.147 64.2487L788.171 63.5981L787.195 63.0017L786.165 62.4053L785.189 61.8631L784.159 61.3209L783.129 60.833L782.099 60.345L781.014 59.9113L779.93 59.4775L778.846 59.0438L777.761 58.6643L776.677 58.3389L775.592 58.0136L774.454 57.7425L773.315 57.4715L772.231 57.2004L771.092 56.9835L769.954 56.8208L768.815 56.6582L767.677 56.5498L766.484 56.4413L765.345 56.3871L764.207 56.3329H763.068H761.875L760.737 56.3871L759.598 56.4413L758.459 56.5498L757.321 56.6582L756.182 56.8208L755.044 56.9835L753.905 57.2004L752.766 57.4715L751.628 57.7425L750.544 58.0136L749.405 58.3389L748.321 58.6643L747.236 59.0438L746.152 59.4775L745.067 59.9113L744.037 60.345L743.007 60.833L741.977 61.3209L740.947 61.8089L739.971 62.3511L739.049 62.8933L738.128 63.4355L737.26 63.9777L736.447 64.5198L735.688 65.062L734.929 65.6042L734.224 66.1464L733.519 66.6886L732.814 67.285L732.164 67.8272L731.459 68.3693L730.374 69.6706L729.344 71.026L728.26 72.3815L727.175 73.6827L726.145 75.0382L725.115 76.2852L724.139 77.5865L723.163 78.8335L722.187 80.0805L721.266 81.3275L720.344 82.5203L719.476 83.7131L718.609 84.8517L717.741 86.0445L716.874 87.1831L716.061 88.3759L715.193 89.5145L714.326 90.6531L713.458 91.8459L712.645 92.9845L711.777 94.123L710.91 95.3159L710.097 96.4544L709.229 97.593L708.362 98.7858L707.548 99.9244L706.681 101.063L705.813 102.256L705 103.394L704.133 104.533L703.265 105.726L702.398 106.864L701.584 108.003L700.717 109.196L699.849 110.334L699.036 111.473L698.169 112.666L697.301 113.804L696.488 114.943L695.62 116.136L694.753 117.274L693.94 118.413L693.072 119.606L692.205 120.744L691.337 121.883L690.524 123.076L689.656 124.214L688.789 125.353L687.976 126.491L687.108 127.684L686.241 128.823L685.427 129.961L684.56 131.154L683.692 132.293L682.879 133.431L682.012 134.624L681.144 135.763L680.277 136.901L679.463 138.094L678.596 139.233L677.728 140.371L676.915 141.564L676.048 142.703L675.18 143.841L674.367 145.034L673.499 146.173L672.632 147.311L671.71 148.504L670.788 149.643L669.812 150.781L668.782 151.92L667.752 153.058L666.614 154.143L665.421 155.281L664.228 156.366L662.927 157.45L661.625 158.48L660.27 159.51L658.86 160.541L657.451 161.516L655.987 162.438L654.523 163.36L653.059 164.227L651.541 165.041L650.023 165.854L648.505 166.613L646.932 167.318L645.36 167.968L643.733 168.619L642.107 169.215L640.48 169.758L638.854 170.3L637.227 170.788L635.546 171.222L633.866 171.601L632.185 171.981L630.504 172.306L628.823 172.577L627.088 172.794L625.408 172.957L623.673 173.119L621.938 173.228L620.257 173.282L618.522 173.336L616.787 173.282L615.106 173.228L613.371 173.119L611.636 172.957L609.955 172.794L608.22 172.577L606.54 172.306L604.859 171.981L603.178 171.601L601.497 171.222L599.817 170.788L598.19 170.3L596.563 169.758L594.937 169.215L593.31 168.619L591.738 167.968L590.111 167.318L588.593 166.613L587.021 165.854L585.557 165.095L584.093 164.282L582.684 163.468L581.328 162.601L580.027 161.788L578.78 160.92L577.587 159.998L576.448 159.131L575.31 158.263L574.28 157.342L573.195 156.42L572.165 155.552L571.135 154.631V163.143V171.709V180.276V188.788V197.355V205.867V214.434V223H569.725H568.261H566.798H565.388H563.924H562.514H561.05H559.641H558.177H556.767H555.303H553.894H552.43H550.966H549.556H548.092V214.434V206.03V197.843V189.927V182.499V175.559V169.27V163.794V159.077V155.119V151.757V148.938V146.444V144.275V142.215V140.209V138.148V135.98V133.757V131.425V129.094V126.762V124.377V121.991V119.66V117.274V114.889V112.557V110.226V107.84V105.509V103.178V100.846V98.5147V96.1833V93.852V91.5206V89.1892V86.8036V84.4722V82.0866V79.7552V77.3696V75.0382V72.761V70.5381V68.3693V66.309V64.303V62.3511V60.5077V58.6643V56.8208V54.9774V53.0798V51.1821V49.176V47.17V45.0555V42.9409V40.7722V38.5493V36.3263V34.1576H549.556H550.966H552.43H553.894H555.303H556.767H558.177H559.641H561.05H562.514H563.924H565.388H566.798H568.261H569.725H571.135V36.3263V38.5493V40.7722V42.9952V45.2181V47.4411V49.664V51.887L572.165 50.9653L573.195 50.0978L574.28 49.176L575.31 48.2543L576.448 47.3869L577.587 46.5193L578.78 45.5976L580.027 44.7301L581.328 43.9169L582.684 43.0494L584.093 42.2361L585.557 41.4228L587.021 40.6638L588.593 39.9047L590.111 39.1999L591.738 38.5493L593.31 37.8986L594.937 37.3022L596.563 36.7058L598.19 36.2179L599.817 35.7299L601.497 35.2962L603.178 34.9166L604.859 34.5371L606.54 34.2118L608.22 33.9407L609.955 33.7238L611.636 33.5069L613.371 33.3985L615.106 33.2901L616.787 33.2359L618.522 33.1817L620.257 33.2359L621.938 33.2901L623.673 33.3985L625.408 33.5069L627.088 33.7238L628.823 33.9407L630.504 34.2118L632.185 34.5371L633.866 34.9166L635.546 35.2962L637.227 35.7299L638.854 36.2179L640.48 36.7058L642.107 37.3022L643.733 37.8986L645.36 38.5493L646.932 39.1999L648.505 39.9047L650.023 40.6638L651.541 41.477L653.059 42.2903L654.523 43.1578L655.987 44.0795L657.451 45.0012L658.86 45.9772L660.27 46.9531L661.625 48.0375L662.981 49.0676L664.282 50.2062L665.583 51.3448L666.83 52.5376L668.077 53.7304L669.27 54.9232L670.409 56.1702L671.547 57.4715L672.632 58.7185L673.662 59.9655L674.638 61.2125L675.56 62.4053L676.427 63.5981L677.186 64.7367L677.891 65.8753L678.542 66.9054L679.192 67.9898L679.734 68.9657L680.331 69.9959L680.873 70.9718L681.361 72.002L679.301 74.8755L677.186 77.7491L675.072 80.6227L672.957 83.4963L670.897 86.4241L668.782 89.2976L666.668 92.1712L664.553 95.0448L664.282 93.852L663.957 92.6049L663.632 91.3579L663.306 90.1651L662.981 88.9723L662.656 87.7795L662.276 86.5867L661.842 85.4481L661.409 84.3638L660.921 83.2794L660.433 82.195L659.89 81.1649L659.348 80.1347L658.806 79.1046L658.156 78.1286L657.559 77.1527L656.908 76.231L656.204 75.3093L655.553 74.3876L654.794 73.4659L654.089 72.5984L653.33 71.7309L652.517 70.8634L651.704 70.0501L650.89 69.2368L650.023 68.4778L649.209 67.7187L648.288 66.9597L647.42 66.2548L646.499 65.55L645.577 64.8994L644.601 64.2487L643.625 63.5981L642.649 63.0017L641.673 62.4053L640.643 61.8631L639.613 61.3209L638.583 60.833L637.553 60.345L636.468 59.9113L635.438 59.4775L634.354 59.0438L633.269 58.6643L632.131 58.3389L631.046 58.0136L629.908 57.7425L628.823 57.4715L627.685 57.2004L626.546 56.9835L625.408 56.8208L624.269 56.6582L623.13 56.5498L621.992 56.4413L620.853 56.3871L619.66 56.3329H618.522H617.383L616.245 56.3871L615.052 56.4413L613.913 56.5498L612.775 56.6582L611.636 56.8208L610.498 56.9835L609.359 57.2004L608.22 57.4715L607.136 57.7425L605.997 58.0136L604.913 58.3389L603.829 58.6643L602.69 59.0438L601.66 59.4775L600.576 59.9113L599.491 60.345L598.461 60.833L597.431 61.3209L596.401 61.8631L595.371 62.4053L594.395 63.0017L593.419 63.5981L592.443 64.2487L591.521 64.8994L590.545 65.55L589.624 66.309L588.648 67.1223L587.672 68.044L586.642 69.02L585.611 70.1043L584.473 71.2971L583.334 72.6526L582.141 74.1707L580.894 75.743L579.702 77.478L578.509 79.2672L577.37 81.1649L576.34 83.1167L575.364 85.177L574.497 87.2915L573.792 89.4603L573.141 91.6832L572.653 93.9062L572.274 96.1833L572.003 98.5147L571.84 100.846L571.786 103.178L571.84 105.509L572.003 107.84L572.274 110.172L572.653 112.503L573.141 114.726L573.792 117.003L574.497 119.172L575.364 121.286L576.34 123.347L577.37 125.353L578.509 127.25L579.702 129.04L580.894 130.775L582.141 132.347L583.334 133.865L584.473 135.166L585.611 136.413L586.642 137.498L587.672 138.474L588.648 139.395L589.624 140.209L590.545 140.913L591.521 141.618L592.443 142.269L593.419 142.92L594.395 143.516L595.371 144.112L596.401 144.655L597.431 145.197L598.461 145.685L599.491 146.173L600.576 146.606L601.66 147.04L602.69 147.474L603.829 147.799L604.913 148.179L605.997 148.504L607.136 148.775L608.22 149.046L609.359 149.263L610.498 149.48L611.636 149.697L612.775 149.859L613.913 149.968L615.052 150.076L616.245 150.131L617.383 150.185H618.522H619.66L620.853 150.131L621.992 150.076L623.13 149.968L624.269 149.859L625.408 149.697L626.546 149.48L627.685 149.263L628.823 149.046L629.908 148.775L631.046 148.504L632.131 148.179L633.269 147.799L634.354 147.474L635.438 147.04L636.468 146.606L637.553 146.173L638.583 145.685L639.613 145.197L640.643 144.655L641.673 144.112L642.649 143.516L643.625 142.92L644.601 142.269L645.577 141.618L646.499 140.968L647.42 140.263L648.342 139.504L649.209 138.691L650.131 137.877L650.999 137.01L651.866 136.088L652.734 135.112L653.601 134.082L654.469 133.052L655.336 131.967L656.204 130.829L657.017 129.69L657.884 128.552L658.752 127.413L659.565 126.275L660.433 125.082L661.3 123.943L662.113 122.805L662.981 121.612L663.848 120.473L664.716 119.335L665.529 118.142L666.397 117.003L667.264 115.865L668.077 114.672L668.945 113.533L669.812 112.395L670.626 111.202L671.493 110.063L672.361 108.925L673.174 107.732L674.041 106.593L674.909 105.455L675.776 104.262L676.59 103.123L677.457 101.985L678.325 100.792L679.138 99.6533L680.005 98.5147L680.873 97.3219L681.686 96.1833L682.554 95.0448L683.421 93.852L684.289 92.7134L685.102 91.5748L685.97 90.382L686.837 89.2434L687.65 88.1048L688.518 86.912L689.385 85.7734L690.199 84.6348L691.066 83.442L691.934 82.3035L692.747 81.1649V75.2551V69.3995V63.5439V57.6341V51.7785V45.8687V40.0131V34.1576H693.614H694.482H695.349H696.271H697.138H698.006H698.928H699.795H700.717H701.639H702.615H703.536H704.512H705.488H706.464H707.494H708.524H709.5H710.585H711.615H712.645H713.675H714.759H715.79V36.2179V38.3324V40.4469V42.5614V44.6759V46.7904V48.8507V50.9653L716.82 50.2062L717.85 49.3929L718.88 48.5797L719.91 47.8206L720.995 47.0073L722.133 46.194L723.326 45.3808L724.573 44.6217L725.874 43.8084L727.23 42.9952L728.639 42.1819L730.103 41.4228L731.567 40.6638L733.085 39.9047L734.658 39.1999L736.23 38.5493L737.856 37.8986L739.429 37.3022L741.055 36.7058L742.736 36.2179L744.363 35.7299L746.043 35.2962L747.724 34.9166L749.405 34.5371L751.086 34.2118L752.766 33.9407L754.501 33.7238L756.182 33.5069L757.917 33.3985L759.598 33.2901L761.333 33.2359L763.068 33.1817L764.749 33.2359L766.484 33.2901L768.219 33.3985L769.899 33.5069L771.634 33.7238L773.315 33.9407L775.05 34.2118L776.731 34.5371L778.412 34.9166Z" fill="white"/>
<path d="M506.075 92.1172L506.129 90.2735V88.2676L506.075 86.0987L506.021 83.8213L505.912 81.3819L505.75 78.833L505.425 76.2305L505.045 73.5742L504.503 70.8633L503.798 68.2061L502.876 65.4951L501.846 62.8926L500.599 60.291L499.135 57.7422L497.509 55.3028L495.611 52.917L493.551 50.6944L491.219 48.5254L488.726 46.5196L486.068 44.6211L483.304 42.9405L480.43 41.3682L477.557 39.959L474.628 38.7119L471.809 37.6817L468.989 36.8145L466.225 36.1094L463.567 35.5674L460.911 35.1875L458.309 34.916L455.652 34.7539L453.05 34.6455H447.79L445.134 34.6992L442.477 34.8076L439.82 35.0244L437.163 35.2412L434.562 35.5127L432.013 35.8379L429.465 36.2178L426.971 36.6514L424.585 37.1397L422.146 37.7354L419.813 38.3867L417.482 39.0909L415.151 39.9043L412.819 40.8262L410.542 41.8565L408.211 42.9951L405.88 44.1875L403.548 45.4893L401.217 46.8448L398.831 48.2539L396.5 49.6641L394.168 51.128L391.783 52.6455L392.434 53.7305L393.084 54.8145L393.681 55.8985L394.331 57.0371L394.981 58.1221L395.578 59.2061L396.229 60.291L396.879 61.375L397.53 62.459L398.181 63.544L398.831 64.628L399.481 65.7666L400.133 66.8506L400.783 67.9356L401.434 69.0196L402.084 70.1045L404.633 68.586L407.181 67.1768L409.729 65.7119L412.223 64.3565L414.717 63.0557L417.211 61.8633L419.651 60.7784L422.037 59.8028L424.368 58.9356L426.646 58.2305L428.868 57.6338L431.037 57.1455L433.097 56.7666L435.104 56.4414L437.001 56.17L438.845 56.0069L440.525 55.8448L442.151 55.7364L443.724 55.6817L445.242 55.628L446.76 55.6817L448.278 55.7364L449.851 55.7901L451.423 55.9532L453.104 56.1162L454.784 56.3867L456.52 56.6582L458.255 56.9834L460.044 57.3623L461.725 57.8506L463.405 58.3926L465.032 59.044L466.604 59.7481L468.068 60.5078L469.478 61.4287L470.779 62.3506L472.026 63.3809L473.164 64.5196L474.249 65.6582L475.279 66.9053L476.201 68.2061L477.068 69.6162L477.882 71.0254L478.586 72.4893L479.183 74.0616L479.725 75.5801L480.213 77.2071L480.593 78.833L480.863 80.46L481.135 82.1407L481.297 83.8213L481.405 85.502L481.46 87.2373V88.918L481.514 90.6524V92.3877H442.748L440.037 92.4424L437.272 92.6045L434.344 92.7676L431.308 93.0928L428.163 93.5264L424.91 94.0684L421.549 94.7735L418.133 95.6953L414.663 96.7256L411.302 97.9727L407.994 99.4366L404.85 101.063L401.922 102.906L399.319 105.021L396.987 107.298L394.981 109.737L393.247 112.34L391.783 114.997L390.59 117.762L389.614 120.473L388.801 123.13L388.259 125.732L387.825 128.227L387.554 130.611L387.391 132.889L387.445 135.112L387.608 137.28L387.934 139.396L388.367 141.564L388.964 143.679L389.668 145.901L390.536 148.07L391.566 150.293L392.759 152.516L394.114 154.631L395.741 156.745L397.584 158.751L399.698 160.648L402.084 162.438L404.687 164.119L407.452 165.691L410.434 167.101L413.47 168.348L416.669 169.432L419.868 170.408L423.066 171.167L426.266 171.764L429.41 172.251L432.446 172.522L435.482 172.686L438.41 172.739L441.229 172.686L443.94 172.577L446.489 172.359L448.929 172.089L451.206 171.764L453.32 171.384L455.381 170.95L457.333 170.462L459.176 169.92L460.911 169.378L462.592 168.781L464.219 168.076L465.791 167.426L467.255 166.667L468.664 165.908L470.02 165.148L471.321 164.336L472.568 163.468L473.761 162.601L474.846 161.679L475.93 160.757L476.905 159.835L477.882 158.914L478.803 157.938L479.725 156.962L480.593 155.986L481.514 155.01V176.535H506.075V92.1172ZM441.229 153.817L439.224 153.709L437.326 153.546L435.429 153.329L433.585 153.059L431.796 152.679L430.061 152.245L428.435 151.757L426.862 151.161L425.398 150.456L423.988 149.697L422.633 148.884L421.332 147.907L420.085 146.932L418.946 145.793L417.861 144.654L416.886 143.407L416.019 142.16L415.259 140.859L414.555 139.504L414.012 138.148L413.578 136.793L413.253 135.438L413.036 134.027L412.928 132.672V131.263L412.982 129.853L413.199 128.443L413.47 127.033L413.85 125.624L414.338 124.214L414.88 122.805L415.53 121.395L416.344 120.094L417.266 118.792L418.295 117.6L419.488 116.516L420.789 115.539L422.253 114.617L423.825 113.805L425.507 113.1L427.241 112.503L429.03 111.961L430.928 111.527L432.826 111.147L434.777 110.876L436.784 110.659L438.735 110.551L440.742 110.442L442.802 110.389L444.809 110.334H481.514V130.612L480.592 132.185L479.671 133.757L478.749 135.274L477.827 136.793L476.797 138.257L475.821 139.666L474.736 141.022L473.652 142.269L472.459 143.462L471.267 144.546L469.966 145.576L468.664 146.552L467.255 147.42L465.845 148.287L464.327 149.046L462.809 149.751L461.236 150.401L459.664 150.998L457.983 151.54L456.303 152.028L454.567 152.517L452.778 152.842L450.935 153.167L449.037 153.438L447.14 153.654L445.188 153.763L443.182 153.817H441.229Z" fill="white"/>
<path d="M128.931 14.5305L126.491 13.2293L123.997 11.928L121.449 10.681L118.792 9.43399L116.081 8.24118L113.262 7.1026L110.334 6.01823L107.244 5.0423L103.991 4.12058L100.575 3.25311L97.0508 2.49404L93.4182 1.84342L89.6771 1.24702L85.7734 0.759053L81.8155 0.433738L77.6949 0.162649L73.52 -1.79374e-07H69.291L65.0078 0.162649L60.7245 0.433738L56.4955 0.867492L52.3207 1.51811L48.1459 2.27718L44.1337 3.25311L40.23 4.4459L36.4347 5.80135L32.7479 7.31948L29.2779 9.05446L25.9706 10.9521L22.8802 13.0666L19.9524 15.398L17.2414 17.8378L14.8016 20.5487L12.5244 23.4223L10.5184 26.4585L8.78337 29.7116L7.26527 33.1274L5.964 36.76L4.93388 40.5553L4.1206 44.5133L3.63262 48.5796L3.41574 52.7544L3.63262 56.875L4.17483 60.9956L5.15076 65.062L6.61464 68.9115L8.5665 72.5983L11.0063 76.0141L13.9341 79.1588L17.2414 82.0866L20.8198 84.7433L24.6693 87.1831L28.6815 89.406L32.8021 91.4121L36.9227 93.2013L40.9891 94.7736L45.0012 96.1291L48.9592 97.3761L52.9171 98.5147L56.8208 99.5449L60.6703 100.521L64.5198 101.443L68.3693 102.364L72.1646 103.286L75.9599 104.262L79.6467 105.238L83.2252 106.214L86.6409 107.244L89.9482 108.274L92.9845 109.304L95.8038 110.389L98.3521 111.473L100.683 112.611L102.69 113.75L104.533 114.943L106.105 116.19L107.515 117.545L108.708 118.955L109.792 120.473L110.66 122.045L111.364 123.726L111.907 125.461L112.34 127.25L112.557 129.148L112.666 131.046L112.557 132.943L112.34 134.895L111.907 136.793L111.364 138.745L110.605 140.588L109.684 142.486L108.599 144.275L107.298 145.956L105.834 147.637L104.208 149.155L102.364 150.619L100.358 151.92L98.1894 153.167L95.858 154.251L93.4182 155.227L90.8699 156.149L88.2132 156.908L85.4481 157.558L82.6288 158.101L79.701 158.534L76.7732 158.914L73.8454 159.131L70.8634 159.239H67.9356L65.0078 159.185L62.1342 159.022L59.3148 158.751L56.5497 158.426L53.8388 157.938L51.1821 157.45L48.5796 156.799L45.9772 156.04L43.3747 155.227L40.8264 154.305L38.2781 153.329L35.7841 152.191L33.3443 151.052L30.9044 149.859L28.5731 148.667L26.3501 147.474L24.2356 146.281L22.1753 145.142L20.3319 144.058L18.5427 143.028L16.9161 141.998L15.3438 141.076L13.8257 140.154L12.3618 139.233L10.9521 138.365L9.54243 137.443L8.94602 138.745L8.34962 140.046L7.75322 141.293L7.15681 142.594L6.56041 143.841L5.964 145.142L5.3676 146.444L4.7712 147.691L4.17483 148.992L3.57842 150.293L2.98202 151.54L2.38561 152.841L1.78921 154.089L1.19281 155.39L0.596404 156.691L0 157.938L1.30123 158.968L2.65669 159.944L4.01214 160.974L5.42183 162.004L6.93994 163.035L8.51227 164.065L10.2473 165.149L12.0907 166.233L14.0968 167.372L16.2113 168.456L18.4885 169.595L20.9283 170.734L23.5308 171.872L26.2417 172.956L29.1152 173.987L32.0972 174.963L35.2419 175.938L38.495 176.806L41.9108 177.673L45.435 178.378L49.1218 179.029L52.8629 179.625L56.7666 180.059L60.7788 180.439L64.8451 180.71L69.02 180.818H73.249L77.5322 180.71L81.8155 180.384L86.0445 179.951L90.2735 179.354L94.3941 178.541L98.4063 177.565L102.31 176.426L106.105 175.071L109.792 173.553L113.262 171.818L116.569 169.92L119.714 167.806L122.588 165.474L125.299 162.98L127.738 160.324L130.016 157.45L132.022 154.36L133.757 151.161L135.275 147.691L136.576 144.112L137.606 140.317L138.419 136.359L138.907 132.293L139.124 128.118L138.907 123.943L138.365 119.823L137.389 115.81L135.925 111.961L133.974 108.274L131.534 104.858L128.606 101.714L125.299 98.7858L121.72 96.1291L117.871 93.6893L113.858 91.4663L109.738 89.4602L105.617 87.671L101.551 86.0987L97.5388 84.689L93.5808 83.442L89.6229 82.3576L85.7192 81.3275L81.8697 80.3516L78.0202 79.4299L74.2249 78.5081L70.3754 77.5864L66.6343 76.6105L62.8933 75.6346L59.3148 74.6586L55.8991 73.6285L52.5918 72.5983L49.5556 71.5682L46.7362 70.4838L44.1879 69.3995L41.8566 68.2609L39.8505 67.1223L38.0071 65.9295L36.4347 64.6283L35.025 63.327L33.8322 61.9173L32.8021 60.3992L31.8804 58.8269L31.1755 57.1461L30.6334 55.4111L30.1996 53.5677L29.9827 51.7243L29.8743 49.8266L29.9827 47.929L30.1996 45.9771L30.6334 44.0253L31.1755 42.1276L31.9346 40.23L32.8563 38.3866L33.9407 36.5974L35.2419 34.8624L36.7058 33.2358L38.3324 31.7177L40.1758 30.2538L42.1819 28.9526L44.3506 27.7056L46.682 26.6212L49.1218 25.5911L51.6701 24.7236L54.3268 23.9645L57.0919 23.2597L59.9112 22.7175L62.839 22.2837L65.7668 21.9584L68.6946 21.7416L71.6766 21.6331L74.6044 21.5789L77.5322 21.6873L80.4058 21.85L83.2252 22.1211L85.9903 22.4464L88.7012 22.8801L91.3579 23.4223L93.9604 24.0729L96.5628 24.7778L99.1653 25.5911L101.714 26.5128L104.262 27.5429L106.756 28.6273L109.304 29.8201L111.798 31.0671L114.292 32.3683L116.841 33.6696L119.335 35.025L121.829 36.3805L122.425 35.0793L123.021 33.778L123.618 32.531L124.214 31.2298L124.811 29.9827L125.407 28.6815L126.003 27.3803L126.6 26.1332L127.196 24.832L127.793 23.585L128.389 22.2837L128.985 20.9825L129.582 19.7355L130.178 18.4342L130.775 17.133L131.371 15.886L128.931 14.5305Z" fill="white"/>
</svg>
